<?xml version="1.0" encoding="iso-8859-1"?>
<!-- Generator: Adobe Illustrator 19.0.0, SVG Export Plug-In . SVG Version: 6.00 Build 0)  -->
<svg version="1.1" id="Layer_1" xmlns="http://www.w3.org/2000/svg" xmlns:xlink="http://www.w3.org/1999/xlink" x="0px" y="0px"
	 viewBox="0 0 512 512" style="enable-background:new 0 0 512 512;" xml:space="preserve">
<g>
	<path style="fill:#AED5F3;" d="M256,170.064l21.333-4.267L352,106.064c0,0,142.4,0,160,0c0,26.509-21.491,48-48,48h-12.232
		c7.603,8.494,12.232,19.702,12.232,32c0,26.509-21.491,48-48,48h-32c0,26.509-21.491,48-48,48h-80V170.064z"/>
	<path style="fill:#AED5F3;" d="M256,170.064l-21.334-4.267L160,106.064c0,0-142.4,0-160,0c0,26.509,21.491,48,48,48h12.232
		c-7.603,8.494-12.232,19.702-12.232,32c0,26.509,21.491,48,48,48h32c0,26.509,21.491,48,48,48h80V170.064z"/>
</g>
<g>
	<path style="fill:#5A8BB0;" d="M216,484h40v-48h-40c-8.822,0-16-7.178-16-16s7.178-16,16-16h40v-48h-40c-35.29,0-64,28.71-64,64
		S180.71,484,216,484z"/>
	<path style="fill:#5A8BB0;" d="M328,404h-72v-48h72c8.822,0,16-7.178,16-16s-7.178-16-16-16v-48c35.29,0,64,28.71,64,64
		S363.29,404,328,404z"/>
</g>
<path style="fill:#1E2E3B;" d="M296,484h-40v-48h40c8.822,0,16-7.178,16-16s-7.178-16-16-16h-40v-48h40c35.29,0,64,28.71,64,64
	S331.29,484,296,484z"/>
<polygon style="fill:#78B9EB;" points="272,484 240,484 224,92 288,92 "/>
<circle style="fill:#5A8BB0;" cx="256" cy="76" r="48"/>
<path style="fill:#3C5D76;" d="M256,28c26.509,0,48,21.491,48,48s-21.491,48-48,48"/>
<path style="fill:#1E2E3B;" d="M184,356c-8.822,0-16-7.178-16-16c0-6.616,4.037-12.307,9.778-14.741
	c6.357,4.256,14,6.741,22.222,6.741c22.091,0,40-17.909,40-40s-17.909-40-40-40c-17.894,0-33.04,11.752-38.152,27.957
	C137.443,288.989,120,312.494,120,340c0,35.29,28.71,64,64,64h52.734l-1.958-48H184z"/>
<circle style="fill:#5A8BB0;" cx="312" cy="292" r="40"/>
<g>
</g>
<g>
</g>
<g>
</g>
<g>
</g>
<g>
</g>
<g>
</g>
<g>
</g>
<g>
</g>
<g>
</g>
<g>
</g>
<g>
</g>
<g>
</g>
<g>
</g>
<g>
</g>
<g>
</g>
</svg>
